<svg width="98" height="98" viewBox="0 0 98 98" fill="none" xmlns="http://www.w3.org/2000/svg">
<path d="M16.5 76.0833C16.5 65.25 38.1667 59.2917 49 59.2917C59.8333 59.2917 81.5 65.25 81.5 76.0833V81.5H16.5V76.0833ZM65.25 32.75C65.25 37.0598 63.538 41.193 60.4905 44.2405C57.443 47.288 53.3098 49 49 49C44.6902 49 40.557 47.288 37.5095 44.2405C34.462 41.193 32.75 37.0598 32.75 32.75C32.75 28.4402 34.462 24.307 37.5095 21.2595C40.557 18.212 44.6902 16.5 49 16.5C53.3098 16.5 57.443 18.212 60.4905 21.2595C63.538 24.307 65.25 28.4402 65.25 32.75ZM0.25 11.0833V86.9167C0.25 89.7898 1.39137 92.5453 3.42301 94.577C5.45465 96.6086 8.21015 97.75 11.0833 97.75H86.9167C89.7898 97.75 92.5453 96.6086 94.577 94.577C96.6086 92.5453 97.75 89.7898 97.75 86.9167V11.0833C97.75 8.21015 96.6086 5.45465 94.577 3.42301C92.5453 1.39137 89.7898 0.25 86.9167 0.25H11.0833C8.21015 0.25 5.45465 1.39137 3.42301 3.42301C1.39137 5.45465 0.25 8.21015 0.25 11.0833Z" fill="#BABABA"/>
</svg>
