<svg width="46" height="45" viewBox="0 0 46 45" fill="none" xmlns="http://www.w3.org/2000/svg">
<path fill-rule="evenodd" clip-rule="evenodd" d="M6.89999 11.25C6.89999 10.6533 7.14231 10.081 7.57365 9.65901C8.00498 9.23705 8.59 9 9.19999 9H36.8C37.41 9 37.995 9.23705 38.4263 9.65901C38.8577 10.081 39.1 10.6533 39.1 11.25C39.1 11.8467 38.8577 12.419 38.4263 12.841C37.995 13.2629 37.41 13.5 36.8 13.5H9.19999C8.59 13.5 8.00498 13.2629 7.57365 12.841C7.14231 12.419 6.89999 11.8467 6.89999 11.25Z" fill="black"/>
<path fill-rule="evenodd" clip-rule="evenodd" d="M6.89999 22.5C6.89999 21.9033 7.14231 21.331 7.57365 20.909C8.00498 20.4871 8.59 20.25 9.19999 20.25H36.8C37.41 20.25 37.995 20.4871 38.4263 20.909C38.8577 21.331 39.1 21.9033 39.1 22.5C39.1 23.0967 38.8577 23.669 38.4263 24.091C37.995 24.5129 37.41 24.75 36.8 24.75H9.19999C8.59 24.75 8.00498 24.5129 7.57365 24.091C7.14231 23.669 6.89999 23.0967 6.89999 22.5Z" fill="black"/>
<path fill-rule="evenodd" clip-rule="evenodd" d="M20.7 33.75C20.7 33.1533 20.9423 32.581 21.3736 32.159C21.805 31.7371 22.39 31.5 23 31.5H36.8C37.41 31.5 37.995 31.7371 38.4263 32.159C38.8577 32.581 39.1 33.1533 39.1 33.75C39.1 34.3467 38.8577 34.919 38.4263 35.341C37.995 35.7629 37.41 36 36.8 36H23C22.39 36 21.805 35.7629 21.3736 35.341C20.9423 34.919 20.7 34.3467 20.7 33.75Z" fill="black"/>
</svg>
