<svg width="29" height="29" viewBox="0 0 29 29" fill="none" xmlns="http://www.w3.org/2000/svg">
<path d="M14.9954 3.11758C14.5604 2.68258 13.9562 2.41675 13.2917 2.41675H4.83332C3.50416 2.41675 2.41666 3.50425 2.41666 4.83341V13.2917C2.41666 13.9563 2.68249 14.5605 3.12957 15.0076L14.0046 25.8826C14.4396 26.3176 15.0437 26.5834 15.7083 26.5834C16.3729 26.5834 16.9771 26.3176 17.4121 25.8705L25.8704 17.4122C26.3175 16.9772 26.5833 16.373 26.5833 15.7084C26.5833 15.0438 26.3054 14.4276 25.8704 13.9926L14.9954 3.11758ZM15.7083 24.1788L4.83332 13.2917V4.83341H13.2917V4.82133L24.1667 15.6963L15.7083 24.1788Z" fill="#53BFD2"/>
<path d="M7.85416 9.66675C8.85517 9.66675 9.66666 8.85526 9.66666 7.85425C9.66666 6.85323 8.85517 6.04175 7.85416 6.04175C6.85314 6.04175 6.04166 6.85323 6.04166 7.85425C6.04166 8.85526 6.85314 9.66675 7.85416 9.66675Z" fill="#53BFD2"/>
</svg>
