<svg width="24" height="24" viewBox="0 0 24 24" fill="none" xmlns="http://www.w3.org/2000/svg">
<path d="M20.7 13.35L19.7 14.35L17.65 12.3L18.65 11.3C18.7528 11.1992 18.891 11.1428 19.035 11.1428C19.179 11.1428 19.3172 11.1992 19.42 11.3L20.7 12.58C20.91 12.79 20.91 13.14 20.7 13.35ZM11 18.94L17.06 12.88L19.11 14.93L13.06 21H11V18.94ZM11 14C6.58 14 3 15.79 3 18V20H9V18.11L13 14.11C12.34 14.03 11.67 14 11 14ZM11 4C9.93913 4 8.92172 4.42143 8.17157 5.17157C7.42143 5.92172 7 6.93913 7 8C7 9.06087 7.42143 10.0783 8.17157 10.8284C8.92172 11.5786 9.93913 12 11 12C12.0609 12 13.0783 11.5786 13.8284 10.8284C14.5786 10.0783 15 9.06087 15 8C15 6.93913 14.5786 5.92172 13.8284 5.17157C13.0783 4.42143 12.0609 4 11 4Z" fill="#53BFD2"/>
</svg>
