<?xml version="1.0" standalone="no"?>
<!DOCTYPE svg PUBLIC "-//W3C//DTD SVG 20010904//EN"
 "http://www.w3.org/TR/2001/REC-SVG-20010904/DTD/svg10.dtd">
<svg version="1.0" xmlns="http://www.w3.org/2000/svg"
 width="896.000000pt" height="896.000000pt" viewBox="0 0 896.000000 896.000000"
 preserveAspectRatio="xMidYMid meet">
<metadata>
Created by potrace 1.14, written by Peter Selinger 2001-2017
</metadata>
<g transform="translate(0.000000,896.000000) scale(0.100000,-0.100000)"
fill="#000000" stroke="none">
<path d="M7586 8875 c-113 -147 -252 -548 -411 -1180 -15 -60 -30 -117 -32
-125 -3 -8 -7 -22 -8 -30 -1 -8 -17 -76 -35 -150 -18 -74 -34 -142 -35 -150
-2 -8 -4 -15 -5 -15 -1 0 -3 -9 -4 -20 -2 -11 -13 -59 -24 -107 -12 -48 -23
-98 -26 -110 -2 -13 -11 -52 -20 -88 -8 -36 -18 -76 -20 -90 -3 -14 -21 -97
-41 -184 -20 -88 -37 -168 -38 -178 -1 -10 -4 -18 -7 -18 -3 0 -6 -8 -6 -17
-1 -19 -12 -78 -19 -103 -2 -8 -6 -26 -9 -40 -3 -14 -8 -36 -11 -50 -3 -14 -8
-38 -10 -55 -3 -16 -9 -39 -12 -50 -4 -11 -8 -27 -9 -35 -3 -20 -12 -59 -34
-155 -10 -44 -26 -116 -35 -160 -9 -44 -19 -89 -21 -100 -2 -11 -7 -36 -10
-55 -3 -19 -8 -39 -11 -43 -3 -5 -7 -23 -10 -40 -7 -41 -11 -62 -13 -62 -2 0
-6 -17 -13 -60 -5 -27 -133 -601 -156 -697 -5 -21 -7 -38 -4 -38 3 0 0 -7 -7
-15 -7 -8 -10 -15 -7 -15 3 0 1 -16 -5 -36 -12 -46 -19 -73 -22 -99 -2 -11 -4
-20 -6 -20 -1 0 -3 -9 -4 -20 -2 -11 -11 -51 -20 -90 -10 -38 -19 -78 -21 -88
-2 -10 -7 -27 -10 -37 -3 -10 -8 -29 -10 -42 -4 -21 -28 -121 -42 -178 -3 -14
-7 -29 -9 -35 -1 -5 -23 -91 -48 -190 -26 -99 -49 -191 -52 -205 -3 -14 -14
-56 -26 -95 -11 -38 -22 -78 -24 -90 -3 -16 -108 -379 -125 -433 -2 -8 -30
-91 -62 -185 -32 -95 -59 -179 -62 -187 -4 -16 -49 -131 -65 -165 -78 -172
-97 -217 -85 -200 9 11 21 27 28 35 7 8 23 31 37 50 13 19 29 40 35 46 5 6 30
36 55 65 146 174 317 292 458 316 47 7 138 7 175 -1 15 -3 39 -8 55 -12 15 -3
50 -16 79 -29 28 -13 54 -21 57 -17 3 3 6 0 6 -6 0 -7 5 -12 11 -12 15 0 143
-80 147 -92 2 -4 8 -8 14 -8 8 0 55 -35 115 -85 74 -62 131 -114 206 -185 82
-79 133 -118 96 -74 -32 37 -211 360 -213 384 -1 3 -14 34 -29 70 -52 120 -74
179 -107 285 -12 39 -24 77 -26 85 -3 8 -5 16 -5 17 0 2 -5 17 -10 35 -10 33
-38 150 -63 268 -8 36 -17 87 -20 113 -3 27 -8 52 -10 55 -2 4 -6 34 -10 67
-3 33 -8 71 -11 85 -3 14 -7 56 -11 95 -3 38 -7 88 -9 110 -23 231 -22 775 0
1015 2 19 6 80 10 135 4 55 8 107 10 115 2 13 10 88 20 195 7 66 16 151 20
175 2 14 7 48 10 75 4 28 9 64 12 80 3 17 6 44 8 60 5 51 17 130 21 136 2 4 7
33 10 65 8 69 12 99 14 99 1 0 3 12 5 28 2 15 9 53 15 83 7 31 9 58 6 61 -3 4
-1 12 5 20 6 7 9 13 6 13 -3 0 -1 15 3 33 5 17 12 51 15 74 3 23 12 72 20 109
8 37 12 71 9 76 -3 4 0 8 6 8 6 0 9 3 6 8 -2 4 2 34 10 67 7 33 16 74 18 90 5
30 43 213 52 250 3 11 7 29 9 40 6 32 15 77 27 125 6 25 12 54 13 65 2 11 11
52 20 90 21 89 24 102 39 170 1 6 5 19 9 30 3 11 8 31 11 45 3 14 8 39 11 55
3 17 12 51 20 78 8 26 12 47 9 47 -3 0 0 8 5 18 5 9 11 31 14 47 3 17 28 120
57 230 28 110 53 209 54 220 2 11 4 20 5 20 2 0 4 7 6 15 1 8 8 35 15 60 7 25
14 53 15 62 2 9 13 51 25 93 12 42 23 84 25 93 2 9 21 78 41 152 20 74 37 140
38 145 1 6 5 16 9 23 18 28 -13 10 -37 -23z"/>
<path d="M3480 8849 c-8 -12 -20 -27 -26 -33 -16 -17 -58 -99 -56 -108 1 -5
-2 -8 -6 -8 -6 0 -34 -59 -37 -80 0 -3 -6 -14 -12 -26 -21 -36 -165 -477 -178
-544 -2 -8 -4 -15 -5 -15 -1 0 -3 -7 -5 -15 -2 -8 -13 -50 -25 -92 -11 -43
-23 -85 -25 -95 -3 -10 -9 -36 -15 -58 -6 -22 -12 -47 -14 -55 -1 -9 -5 -20
-8 -25 -3 -6 -9 -28 -13 -50 -5 -22 -9 -44 -11 -50 -20 -79 -104 -423 -110
-455 -3 -14 -7 -33 -10 -42 -3 -10 -7 -28 -10 -40 -6 -34 -11 -56 -29 -133 -9
-38 -19 -79 -21 -90 -8 -43 -13 -62 -29 -130 -9 -38 -19 -81 -21 -95 -3 -14
-7 -32 -10 -40 -3 -8 -8 -33 -11 -55 -3 -22 -9 -48 -14 -57 -6 -10 -8 -18 -5
-18 3 0 0 -15 -5 -32 -5 -18 -12 -46 -15 -63 -2 -16 -7 -38 -10 -47 -5 -17
-11 -43 -20 -93 -3 -16 -14 -70 -25 -120 -12 -49 -23 -101 -25 -114 -3 -12
-12 -53 -20 -90 -9 -36 -18 -77 -20 -91 -3 -14 -7 -33 -10 -43 -3 -10 -8 -34
-10 -54 -3 -20 -7 -40 -10 -44 -3 -5 -7 -19 -9 -31 -10 -52 -32 -156 -39 -185
-3 -10 -12 -52 -21 -93 -9 -41 -18 -82 -20 -90 -2 -8 -11 -49 -20 -90 -9 -41
-19 -84 -22 -95 -2 -11 -6 -29 -7 -40 -1 -11 -5 -29 -9 -40 -3 -11 -9 -31 -11
-45 -3 -14 -15 -65 -26 -115 -11 -49 -22 -101 -25 -115 -5 -25 -12 -56 -19
-87 -7 -28 -84 -358 -107 -458 -12 -49 -30 -120 -40 -157 -10 -38 -15 -68 -12
-68 3 0 0 -7 -7 -15 -7 -8 -10 -15 -7 -15 3 0 1 -16 -5 -36 -5 -20 -11 -44
-14 -53 -2 -9 -10 -43 -19 -76 -8 -33 -17 -70 -19 -82 -3 -13 -7 -26 -10 -31
-3 -5 -8 -22 -11 -38 -3 -16 -23 -94 -45 -174 -23 -80 -43 -156 -46 -170 -3
-14 -12 -45 -21 -70 -8 -25 -16 -52 -18 -60 -2 -8 -4 -15 -5 -15 -1 0 -3 -7
-5 -15 -1 -8 -10 -38 -18 -67 -8 -28 -13 -54 -10 -57 4 -3 1 -6 -5 -6 -7 0
-12 -7 -12 -16 0 -50 -185 -551 -254 -686 -19 -38 -31 -68 -27 -68 4 0 14 12
22 27 33 65 215 275 302 350 163 139 346 190 520 144 72 -20 227 -90 227 -103
0 -4 3 -7 8 -6 7 3 97 -56 120 -79 7 -7 16 -13 20 -13 4 0 23 -15 44 -33 20
-17 57 -50 83 -72 26 -22 71 -62 99 -89 179 -170 168 -163 101 -56 -43 69 -52
85 -54 95 -1 6 -8 17 -16 25 -11 13 -91 175 -138 280 -19 42 -88 227 -91 243
-2 7 -14 50 -29 97 -27 87 -57 200 -63 235 -2 11 -12 61 -23 110 -10 50 -22
110 -25 135 -3 25 -8 56 -10 70 -9 54 -19 127 -23 170 -2 25 -6 61 -8 80 -20
166 -27 741 -12 980 5 69 10 150 12 180 4 62 13 163 20 230 3 25 7 70 10 100
2 30 7 69 9 85 8 51 28 208 32 250 2 22 6 54 9 70 4 17 8 44 10 60 6 52 25
179 30 195 2 8 6 35 9 60 3 25 8 56 11 70 3 14 12 66 20 115 8 50 17 101 20
115 3 14 7 36 10 50 3 24 32 174 60 318 47 238 210 966 220 982 2 4 6 18 8 31
3 14 17 72 31 130 14 57 28 113 30 124 3 11 25 99 51 195 25 96 48 186 51 200
3 14 8 34 11 45 7 22 10 30 16 60 6 26 34 126 53 190 8 28 16 61 19 74 2 13
12 49 21 80 22 71 24 81 15 81 -3 0 -13 -10 -21 -21z"/>
<path d="M5536 8064 c-13 -15 -32 -44 -43 -65 -10 -21 -21 -39 -25 -39 -5 0
-8 -4 -8 -9 0 -5 -14 -40 -31 -77 -52 -112 -142 -373 -194 -564 -1 -3 -5 -12
-8 -20 -5 -12 -33 -115 -41 -155 -2 -5 -8 -30 -15 -55 -7 -25 -15 -52 -17 -60
-2 -8 -24 -96 -49 -195 -25 -99 -48 -189 -50 -200 -6 -27 -14 -62 -19 -82 -2
-10 -18 -74 -34 -143 -26 -106 -59 -253 -77 -337 -9 -42 -13 -58 -23 -98 -6
-22 -13 -53 -15 -70 -3 -16 -21 -99 -41 -183 -20 -84 -38 -167 -41 -185 -2
-18 -11 -61 -20 -97 -9 -35 -18 -74 -20 -85 -2 -11 -4 -20 -5 -20 -1 0 -3 -9
-5 -20 -1 -11 -12 -64 -24 -119 -23 -109 -24 -111 -47 -211 -8 -38 -17 -79
-20 -90 -2 -11 -6 -31 -9 -45 -3 -14 -7 -34 -9 -45 -3 -11 -14 -63 -26 -115
-12 -52 -24 -104 -26 -115 -2 -11 -6 -31 -10 -45 -3 -14 -7 -34 -9 -45 -2 -11
-8 -40 -15 -65 -6 -25 -13 -56 -15 -70 -1 -14 -4 -25 -5 -25 -1 0 -3 -8 -5
-19 -2 -10 -9 -41 -16 -70 -7 -28 -14 -60 -15 -71 -1 -11 -3 -20 -4 -20 -2 0
-6 -19 -15 -65 -3 -19 -11 -53 -17 -75 -5 -22 -12 -49 -14 -60 -2 -11 -6 -30
-9 -42 -3 -13 -7 -31 -9 -42 -2 -10 -9 -36 -15 -56 -6 -21 -8 -42 -5 -46 2 -4
0 -10 -5 -14 -5 -3 -9 -13 -9 -23 0 -9 -16 -84 -37 -167 -20 -82 -37 -158 -38
-167 -1 -10 -5 -18 -10 -18 -4 0 -6 -4 -3 -9 3 -5 -1 -30 -9 -57 -8 -27 -16
-60 -19 -74 -3 -14 -7 -35 -10 -47 -4 -13 -8 -31 -10 -40 -2 -10 -12 -47 -21
-83 -9 -36 -19 -73 -21 -83 -2 -10 -6 -27 -9 -37 -3 -10 -8 -28 -10 -39 -3
-12 -7 -29 -10 -39 -18 -68 -66 -250 -69 -262 -3 -8 -14 -49 -26 -90 -19 -67
-25 -89 -34 -125 -1 -5 -9 -32 -18 -60 -9 -27 -28 -90 -43 -140 -23 -78 -55
-175 -73 -225 -3 -8 -6 -20 -8 -27 -8 -40 -124 -335 -165 -418 -44 -91 -42
-99 9 -30 11 15 74 97 97 125 53 66 197 200 260 242 39 25 102 57 140 71 194
69 428 0 680 -200 124 -98 154 -124 274 -240 46 -46 86 -81 89 -79 4 5 -39 69
-50 74 -5 2 -8 8 -8 12 0 5 -14 33 -31 62 -120 202 -279 591 -313 763 -2 11
-15 65 -29 120 -14 55 -28 116 -31 135 -3 19 -8 46 -11 60 -3 14 -7 34 -9 45
-2 12 -7 48 -11 80 -4 33 -9 69 -11 80 -2 11 -6 40 -9 65 -3 25 -7 63 -10 85
-30 259 -35 817 -10 1105 6 78 16 195 21 265 2 33 6 78 9 100 2 22 7 65 10 95
3 30 8 66 10 80 2 14 7 48 10 75 3 28 8 70 12 95 3 25 7 54 8 65 2 20 13 100
21 145 4 24 15 109 18 140 1 9 6 21 10 28 4 7 6 16 3 18 -2 3 -1 22 4 42 5 20
11 55 14 77 3 22 10 63 15 90 5 28 12 66 14 85 3 19 15 82 26 140 25 129 33
171 33 188 0 6 3 12 7 12 3 0 6 8 6 18 1 24 18 125 24 142 3 6 3 8 14 73 5 26
12 50 17 53 5 3 7 9 4 14 -3 5 -1 29 6 52 6 24 13 54 15 68 3 14 12 54 20 90
9 36 18 74 19 85 6 33 15 77 30 135 8 30 16 66 18 80 3 14 10 43 16 65 6 22
12 51 15 65 2 14 5 25 7 25 1 0 3 9 5 20 1 11 5 29 8 40 8 31 37 148 41 165 1
8 17 71 35 140 17 69 34 133 36 143 2 9 6 26 9 37 3 11 7 28 9 38 2 9 11 44
20 77 22 80 25 91 31 116 2 12 12 47 21 78 9 31 18 64 20 75 2 10 11 44 20 75
9 31 18 67 21 80 2 13 8 32 14 43 5 10 7 18 5 18 -3 0 -1 12 5 26 5 15 12 43
15 63 3 20 10 44 15 54 14 25 4 21 -25 -9z"/>
<path d="M3250 3442 c0 -4 -27 -8 -59 -8 -57 -1 -179 -35 -211 -59 -8 -6 -28
-17 -43 -23 -27 -12 -28 -14 -15 -35 8 -12 27 -43 42 -69 l28 -48 40 21 c106
54 197 68 285 44 26 -7 93 -35 149 -63 206 -103 327 -120 514 -73 25 7 54 16
65 21 34 14 60 23 65 22 3 0 15 7 26 16 l21 17 -30 67 c-34 73 -32 73 -102 43
-88 -37 -119 -44 -216 -49 -77 -4 -147 16 -259 73 -98 50 -234 103 -243 95 -2
-2 -16 0 -31 5 -14 6 -26 7 -26 3z"/>
<path d="M5137 3444 c-2 -3 -19 -7 -35 -9 -57 -7 -116 -27 -185 -62 -68 -34
-68 -34 -53 -58 9 -13 25 -41 37 -62 12 -21 23 -41 25 -45 3 -4 26 4 51 18 69
36 132 52 199 49 53 -1 78 -10 181 -63 66 -33 149 -70 184 -82 69 -24 190 -32
254 -17 22 5 51 11 64 13 43 9 181 65 181 75 0 5 -15 38 -32 74 -24 49 -36 64
-48 59 -45 -20 -148 -56 -169 -60 -114 -22 -189 -6 -349 75 -131 66 -178 83
-238 86 -23 1 -46 5 -51 8 -6 4 -13 4 -16 1z"/>
<path d="M680 3369 c-43 -10 -69 -16 -95 -23 -27 -7 -126 -44 -132 -50 -7 -6
54 -141 64 -141 4 1 46 14 93 29 67 23 106 30 182 32 107 2 142 -6 303 -70 86
-34 170 -58 245 -71 36 -7 204 -8 230 -2 40 9 116 21 124 19 4 -2 13 1 20 6 6
5 34 15 61 22 89 23 87 20 58 104 l-26 74 -54 -19 c-29 -10 -53 -16 -53 -13 0
3 -8 0 -19 -5 -10 -6 -38 -13 -62 -17 -120 -16 -163 -20 -187 -17 -15 1 -45 5
-67 8 -46 5 -145 34 -225 65 -138 54 -134 52 -225 71 -56 11 -182 10 -235 -2z"/>
<path d="M7330 3370 c-19 -5 -38 -6 -42 -4 -5 3 -8 0 -8 -5 0 -6 -3 -10 -7 -9
-19 5 -152 -40 -172 -58 -3 -2 35 -101 54 -141 0 -1 21 5 45 14 193 68 338 67
500 -4 8 -3 17 -7 20 -7 3 -1 10 -4 15 -7 9 -6 103 -39 130 -46 123 -32 133
-34 240 -34 73 -1 152 8 230 25 27 7 102 28 115 33 8 4 18 7 23 8 4 2 10 4 15
5 4 1 10 2 14 1 6 0 -37 132 -49 151 -2 5 -13 3 -24 -3 -11 -6 -28 -12 -37
-14 -9 -1 -37 -8 -62 -15 -170 -46 -297 -44 -440 5 -41 14 -79 27 -85 28 -5 1
-17 7 -25 12 -8 5 -19 10 -25 11 -5 1 -46 14 -90 29 -65 22 -101 28 -190 30
-60 2 -126 -1 -145 -5z"/>
<path d="M6467 2594 c-1 -1 -21 -4 -44 -7 -232 -32 -445 -168 -574 -367 -32
-50 -78 -141 -84 -165 -1 -5 -5 -17 -8 -25 -39 -98 -52 -264 -30 -393 57 -328
303 -591 625 -666 91 -21 267 -26 341 -9 23 5 53 12 67 14 14 3 29 9 34 15 6
5 20 9 32 9 13 0 26 5 29 10 4 6 11 8 16 5 5 -4 9 -1 9 4 0 6 6 11 13 11 24 0
164 98 223 157 33 33 79 89 102 124 23 35 46 69 52 76 5 7 10 18 10 26 0 7 5
18 11 24 6 6 12 19 14 29 2 11 4 20 5 22 2 1 3 5 5 10 1 4 4 14 7 22 29 75 51
251 34 278 -4 7 -2 12 4 12 6 0 9 4 6 8 -3 5 -8 31 -11 58 -24 181 -101 340
-229 468 -73 73 -89 86 -141 121 -41 26 -153 80 -190 90 -16 5 -33 9 -37 10
-5 2 -9 3 -10 5 -15 11 -270 34 -281 24z"/>
<path d="M2409 2565 c-2 -2 -31 -6 -64 -10 -96 -10 -125 -17 -228 -57 -282
-110 -492 -391 -512 -684 -3 -36 -7 -70 -10 -75 -4 -5 -3 -9 2 -9 4 0 8 -21 9
-48 4 -319 251 -632 579 -734 101 -31 294 -43 385 -24 123 26 263 88 350 157
54 41 169 158 170 171 0 4 6 13 13 20 7 7 18 24 25 38 7 14 22 41 32 60 24 43
66 171 76 231 10 55 10 198 1 264 -34 252 -225 507 -462 615 -111 51 -157 63
-289 75 -33 4 -63 8 -66 10 -4 3 -9 3 -11 0z"/>
<path d="M4340 1760 c-89 -18 -99 -20 -145 -40 -26 -11 -53 -20 -61 -20 -8 0
-14 -4 -14 -10 0 -5 -6 -10 -13 -10 -23 0 -152 -94 -212 -155 -63 -64 -127
-153 -159 -220 -16 -36 -57 -146 -56 -152 0 -2 0 -4 -1 -5 -20 -68 -27 -219
-13 -318 9 -65 6 -51 28 -124 85 -286 333 -508 631 -566 323 -63 659 78 839
354 73 113 106 197 131 336 12 63 5 270 -8 270 -4 0 -6 4 -3 8 12 19 -58 205
-101 272 -129 197 -316 328 -538 376 -49 11 -257 13 -305 4z"/>
</g>
</svg>
