<svg width="52" height="56" viewBox="0 0 52 56" fill="none" xmlns="http://www.w3.org/2000/svg">
<circle cx="13.1471" cy="45.1471" r="5.14706" fill="#968585"/>
<path d="M18.478 42.5736C13.8093 37.8026 11.5337 37.6527 8.18384 42.5736C12.4089 35.2285 16.8235 3.0515 19.9485 0.477966C13.8268 22.7206 13.1421 34.7585 18.478 42.5736Z" fill="#968585"/>
<circle cx="26" cy="50.0735" r="5.14706" fill="#968585"/>
<path d="M31.3309 47.5C26.6622 42.729 24.3866 42.5791 21.0368 47.5C25.2618 40.155 29.6765 7.97795 32.8015 5.40442C26.6797 27.6471 25.9951 39.685 31.3309 47.5Z" fill="#968585"/>
<circle cx="38.8676" cy="44.9265" r="5.14706" fill="#968585"/>
<path d="M44.1985 42.353C39.5298 37.582 37.2542 37.4321 33.9044 42.353C38.1294 35.0079 42.5441 2.83091 45.6691 0.257385C39.5474 22.5 38.8627 34.538 44.1985 42.353Z" fill="#968585"/>
<path d="M42.5441 35.8624C46.4414 34.1646 46.4044 37.5168 51 35.8624" stroke="#CDAD3A"/>
<path d="M28.5735 35.5638C31.7931 33.6289 31.7625 37.4493 35.5588 35.5638" stroke="#CDAD3A"/>
<path d="M16.4412 35.5638C19.8302 33.6289 19.798 37.4493 23.7941 35.5638" stroke="#CDAD3A"/>
<path d="M1 35.8624C4.89731 34.1646 4.86029 37.5168 9.45588 35.8624" stroke="#CDAD3A"/>
</svg>
